<?xml version="1.0" encoding="UTF-8"?>
<svg version="1.1" xmlns="http://www.w3.org/2000/svg" width="1250" height="654">
<path d="M0 0 C412.5 0 825 0 1250 0 C1250 215.82 1250 431.64 1250 654 C837.5 654 425 654 0 654 C0 438.18 0 222.36 0 0 Z " fill="#FEFEFE" transform="translate(0,0)"/>
<path d="M0 0 C1.27286865 0.00161133 2.5457373 0.00322266 3.85717773 0.00488281 C13.73094282 0.13300749 22.44279107 1.36330784 31.8125 4.375 C33.359375 4.808125 33.359375 4.808125 34.9375 5.25 C57.7517436 12.04573214 79.19825445 27.10915437 95.57421875 44.1015625 C97.63567399 46.19539662 99.75723703 48.10458655 102 50 C105.31233019 52.84197931 108.15220354 55.89304613 110.97265625 59.21875 C112.9951773 61.58909315 115.08663848 63.88638305 117.1875 66.1875 C121.08369488 70.50490514 124.78347045 74.94952592 128.4375 79.47265625 C130.08326263 81.48384314 131.74005784 83.467514 133.4375 85.43359375 C139.34403503 92.2789158 144.81071846 99.32458406 150.10546875 106.65234375 C152.73966077 110.29420215 155.44562061 113.87621433 158.1875 117.4375 C158.95835938 118.43910156 159.72921875 119.44070313 160.5234375 120.47265625 C162.14557509 122.52939385 163.7866888 124.53614737 165.48046875 126.53125 C167.59106374 129.10497387 169.12774214 131.66663491 170.7109375 134.58203125 C172.33859007 137.23129554 174.3840004 139.4479308 176.4453125 141.765625 C178.18830908 143.81738098 179.43607581 146.06260736 180.8125 148.375 C181.90795108 149.75695367 183.01333749 151.13105315 184.125 152.5 C188.03881699 157.45031514 190.95814306 162.76349332 193.8125 168.375 C194.37130859 169.41527344 194.37130859 169.41527344 194.94140625 170.4765625 C199.26819042 179.90623563 197.24594986 193.04769288 193.8125 202.375 C189.17200758 213.27560769 180.69559658 222.54243365 169.8125 227.375 C168.8225 227.375 167.8325 227.375 166.8125 227.375 C166.4825 228.365 166.1525 229.355 165.8125 230.375 C158.56886169 233.99681916 144.21408875 232.11090141 136.5625 230.25 C131.40119947 228.52137395 127.09825682 225.68231045 122.8125 222.375 C121.98105469 221.7459375 121.14960937 221.116875 120.29296875 220.46875 C113.70454589 214.90749858 108.89420086 207.19136119 103.8828125 200.234375 C98.68827525 193.06003299 93.33365161 186.00619373 87.875 179.03125 C85.65005568 176.16579141 83.44843828 173.28332278 81.2487793 170.3984375 C68.03498711 153.0578789 68.03498711 153.0578789 54.04663086 136.34301758 C51.55570612 133.48718854 49.22148694 130.59472954 47 127.5234375 C43.44866172 122.73438123 39.35006 118.56935656 35.125 114.375 C34.32843994 113.58335449 33.53187988 112.79170898 32.71118164 111.97607422 C27.10707881 106.48283677 21.57909267 101.41709001 14.8125 97.375 C14.07257812 96.92898438 13.33265625 96.48296875 12.5703125 96.0234375 C4.95775387 92.04106697 -3.29906081 92.36223887 -11.4375 94.625 C-15.06557947 95.86497653 -18.47199787 97.34598563 -21.85546875 99.14453125 C-24.33719585 100.45398525 -26.85686872 101.67499022 -29.38110352 102.89990234 C-35.02984899 105.65823162 -40.14147677 108.61521798 -45.1875 112.375 C-46.55772986 113.14435037 -47.93898129 113.89425694 -49.328125 114.62890625 C-54.19954784 117.3006985 -58.64317285 120.41461292 -63.125 123.6875 C-64.6101699 124.77120396 -66.09830562 125.85085896 -67.58984375 126.92578125 C-68.55651978 127.63214722 -68.55651978 127.63214722 -69.54272461 128.3527832 C-71.1875 129.375 -71.1875 129.375 -73.1875 129.375 C-73.5175 130.365 -73.8475 131.355 -74.1875 132.375 C-76.46784235 134.20561617 -78.7294668 135.89820984 -81.125 137.5625 C-81.77146484 138.02591797 -82.41792969 138.48933594 -83.08398438 138.96679688 C-87.91770987 142.375 -87.91770987 142.375 -90.1875 142.375 C-90.1875 143.035 -90.1875 143.695 -90.1875 144.375 C-91.96739685 145.85824737 -93.81413526 147.26170982 -95.6875 148.625 C-96.7084375 149.37265625 -97.729375 150.1203125 -98.78125 150.890625 C-99.59867676 151.48472168 -99.59867676 151.48472168 -100.43261719 152.09082031 C-103.02344921 153.98672688 -105.58638815 155.91925988 -108.15234375 157.84863281 C-110.11167998 159.31813498 -112.07796129 160.77773975 -114.046875 162.234375 C-121.30497095 167.61873012 -128.37879655 173.11694216 -135.27734375 178.95703125 C-138.27336228 181.44634061 -141.33711731 183.83107706 -144.4375 186.1875 C-149.41113534 189.97031782 -154.28598864 193.85899874 -159.125 197.8125 C-165.78199393 203.24791102 -172.49715425 208.59871956 -179.27587891 213.88134766 C-181.39039153 215.53353006 -183.49793413 217.19439571 -185.60546875 218.85546875 C-199.88783415 230.08444624 -214.55827407 240.11374017 -230.1875 249.375 C-230.88311035 249.78814453 -231.5787207 250.20128906 -232.29541016 250.62695312 C-282.54622268 280.26421009 -349.73796677 293.03356081 -407.27270508 281.86083984 C-410.00158157 281.405989 -412.61088884 281.2123875 -415.37109375 281.078125 C-423.21517846 280.45642963 -430.71535633 278.59164267 -438.33935547 276.72900391 C-440.78529886 276.1316432 -443.23401406 275.54709265 -445.68359375 274.96484375 C-470.15627985 269.10514105 -494.59782368 262.33712997 -518.05566406 253.1875 C-521.49022598 251.8784961 -524.95421929 250.65248751 -528.41455078 249.41357422 C-536.67603967 246.45280137 -544.79021211 243.35575772 -552.8203125 239.8125 C-557.97466535 237.61203382 -563.22878697 235.69658073 -568.484375 233.75390625 C-572.27706942 232.34164767 -576.03509525 230.86264299 -579.78125 229.33203125 C-582.45241919 228.26963441 -585.14406802 227.26639217 -587.83691406 226.26049805 C-592.50901937 224.50045173 -597.16029608 222.68684805 -601.8125 220.875 C-602.823125 220.48441406 -603.83375 220.09382812 -604.875 219.69140625 C-609.77676837 217.78087448 -614.48925986 215.74892224 -619.1875 213.375 C-621.55256412 212.59667206 -623.9267572 211.95700688 -626.33203125 211.31640625 C-628.77734549 210.51022194 -630.9895817 209.58264841 -633.32421875 208.51171875 C-638.49657009 206.17173096 -643.79397314 204.3826221 -649.1875 202.625 C-650.22495361 202.28428467 -651.26240723 201.94356934 -652.33129883 201.5925293 C-654.5151944 200.87692011 -656.69985999 200.16365697 -658.88525391 199.45263672 C-662.11867601 198.39745964 -665.34663501 197.32678865 -668.57421875 196.25390625 C-686.39978586 190.3745722 -704.1677679 186.01365634 -722.625 182.625 C-724.33006714 182.30849487 -724.33006714 182.30849487 -726.06958008 181.9855957 C-775.51625411 173.24029164 -825.96994426 182.73037058 -867.41796875 211.3671875 C-870.45049771 213.56566407 -873.44774356 215.80622054 -876.4375 218.0625 C-889.75028307 228.08583732 -901.59450277 232.87653026 -918.6171875 231.125 C-930.14078146 229.1565569 -940.77701308 221.38138594 -947.81640625 212.265625 C-953.36739682 203.71544251 -955.36666159 195.66031936 -955.375 185.5625 C-955.38724609 184.79357422 -955.39949219 184.02464844 -955.41210938 183.23242188 C-955.44330618 170.90968408 -950.60577555 160.68962348 -942.125 151.75 C-934.31305913 144.39208647 -925.09338149 138.45927503 -916.0546875 132.7265625 C-914.09829213 131.39526213 -914.09829213 131.39526213 -912.3671875 129.4765625 C-909.66126193 126.86762351 -906.65791894 125.01828187 -903.4375 123.125 C-902.7770166 122.73441406 -902.1165332 122.34382813 -901.43603516 121.94140625 C-894.19447598 117.71645126 -886.78265342 113.92074802 -879.1875 110.375 C-878.41728516 110.0140625 -877.64707031 109.653125 -876.85351562 109.28125 C-856.8523696 100.02770774 -835.81735932 93.54140733 -814.1875 89.375 C-812.6715625 89.07335937 -812.6715625 89.07335937 -811.125 88.765625 C-808.15197418 88.22057027 -805.18301632 87.77921425 -802.1875 87.375 C-801.54844727 87.28476562 -800.90939453 87.19453125 -800.25097656 87.1015625 C-756.49623081 81.13042154 -711.59004985 87.31584562 -669.1875 98.375 C-668.06537109 98.66117187 -666.94324219 98.94734375 -665.78710938 99.2421875 C-655.59127437 101.88776989 -645.5769598 104.99244723 -635.5625 108.25 C-634.71252441 108.52524506 -633.86254883 108.80049011 -632.98681641 109.08407593 C-614.14277312 115.2051897 -595.63879294 122.16705591 -577.1875 129.375 C-577.1875 130.035 -577.1875 130.695 -577.1875 131.375 C-576.50212158 131.48602051 -575.81674316 131.59704102 -575.1105957 131.71142578 C-571.70343526 132.48488791 -568.65630328 133.67898458 -565.41796875 134.9921875 C-564.45821892 135.37892136 -564.45821892 135.37892136 -563.4790802 135.77346802 C-561.44270933 136.59489909 -559.40878803 137.42219735 -557.375 138.25 C-554.70246197 139.33231237 -552.02902309 140.41238848 -549.35546875 141.4921875 C-548.71440186 141.75150558 -548.07333496 142.01082367 -547.4128418 142.27799988 C-543.02789195 144.04797706 -538.62286391 145.7363661 -534.1875 147.375 C-531.22516493 148.51056744 -528.26867135 149.66099575 -525.3125 150.8125 C-524.52093506 151.12034424 -523.72937012 151.42818848 -522.91381836 151.74536133 C-518.84975667 153.32835569 -514.79329355 154.92701048 -510.75 156.5625 C-506.61001421 158.22979803 -502.4271702 159.7561507 -498.22607422 161.26196289 C-495.24626956 162.35347257 -492.29639604 163.50523281 -489.34375 164.66796875 C-481.64671405 167.63271672 -473.84927466 170.22373173 -466 172.75 C-465.26171967 172.98800323 -464.52343933 173.22600647 -463.76278687 173.47122192 C-442.53581217 180.29386238 -421.31700481 186.30683014 -399.1875 189.375 C-397.91438965 189.55232666 -396.6412793 189.72965332 -395.32958984 189.91235352 C-385.17634259 191.25513272 -375.17332757 191.73660661 -364.9375 191.6875 C-364.18113251 191.68634186 -363.42476501 191.68518372 -362.64547729 191.68399048 C-350.30112479 191.64679842 -338.30385821 190.89597014 -326.1875 188.375 C-324.36412109 187.99794922 -324.36412109 187.99794922 -322.50390625 187.61328125 C-317.09146066 186.36119775 -312.29179619 184.57974959 -307.1875 182.375 C-305.3587955 181.70625046 -303.5299329 181.03779687 -301.69555664 180.38476562 C-289.84809244 176.13876766 -278.36378208 170.93241218 -268.046875 163.66015625 C-266.1875 162.375 -266.1875 162.375 -262.875 160.5625 C-254.12992523 155.67495244 -246.41244197 148.80938996 -238.7265625 142.44140625 C-236.46399291 140.60002269 -234.16560556 138.8479668 -231.8125 137.125 C-227.97674505 134.29328725 -224.74515941 131.04804159 -221.5 127.5625 C-220.1875 126.375 -220.1875 126.375 -218.1875 126.375 C-218.1875 125.715 -218.1875 125.055 -218.1875 124.375 C-216.3637979 122.8729541 -214.47636233 121.44783831 -212.5625 120.0625 C-209.14568681 117.57076068 -205.75545558 115.09037136 -202.5625 112.3125 C-200.1875 110.375 -200.1875 110.375 -198.1875 110.375 C-198.1875 109.715 -198.1875 109.055 -198.1875 108.375 C-196.11157788 106.8143567 -194.04109992 105.36238401 -191.875 103.9375 C-188.38551099 101.61999538 -185.14257018 99.35570864 -182.1875 96.375 C-181.05365677 95.45021279 -179.90262683 94.54623255 -178.73828125 93.66015625 C-178.06337646 93.14509521 -177.38847168 92.63003418 -176.69311523 92.09936523 C-175.96938721 91.55094971 -175.24565918 91.00253418 -174.5 90.4375 C-173.36703491 89.57523804 -173.36703491 89.57523804 -172.21118164 88.69555664 C-165.22408686 83.38518995 -158.20491785 78.11780348 -151.17578125 72.86328125 C-148.49416101 70.85601738 -145.81792519 68.84162992 -143.14135742 66.82763672 C-140.4633561 64.81532576 -137.77989626 62.81035925 -135.09619141 60.80566406 C-133.31251178 59.46870287 -131.5366412 58.12198768 -129.76171875 56.7734375 C-102.07772156 35.90847094 -72.17576308 17.35249976 -39.1875 6.375 C-37.42986328 5.78332031 -37.42986328 5.78332031 -35.63671875 5.1796875 C-23.80341431 1.35334954 -12.42248685 -0.0164678 0 0 Z " fill="#FEB918" transform="translate(1030.1875,197.625)"/>
<path d="M0 0 C0 0.33 0 0.66 0 1 C-1.64574566 1.02688151 -3.29161413 1.04634123 -4.9375 1.0625 C-5.85402344 1.07410156 -6.77054687 1.08570313 -7.71484375 1.09765625 C-10 1 -10 1 -11 0 C-12.99784929 0.03222338 -14.99620053 0.06809043 -16.9921875 0.16015625 C-19 0 -19 0 -22 -2 C-24.67197035 -2.42114198 -24.67197035 -2.42114198 -27.5625 -2.5625 C-32.80763359 -2.90381679 -32.80763359 -2.90381679 -35 -4 C-38.63386433 -4.31713725 -42.26847692 -4.51171036 -45.91015625 -4.71875 C-49 -5 -49 -5 -50 -6 C-51.52607589 -6.0990473 -53.05665207 -6.13079611 -54.5859375 -6.1328125 C-55.51664063 -6.13410156 -56.44734375 -6.13539063 -57.40625 -6.13671875 C-58.3859375 -6.13285156 -59.365625 -6.12898438 -60.375 -6.125 C-61.34695313 -6.12886719 -62.31890625 -6.13273437 -63.3203125 -6.13671875 C-64.72023438 -6.13478516 -64.72023438 -6.13478516 -66.1484375 -6.1328125 C-67.00614746 -6.13168457 -67.86385742 -6.13055664 -68.74755859 -6.12939453 C-71.16944935 -6.08868276 -71.16944935 -6.08868276 -74 -5 C-74 -5.66 -74 -6.32 -74 -7 C-75.84851563 -6.89171875 -75.84851563 -6.89171875 -77.734375 -6.78125 C-86.15044139 -6.30470832 -94.51133632 -5.87559748 -102.9453125 -6.0625 C-104.99333405 -6.23509291 -104.99333405 -6.23509291 -106 -5 C-108.48341801 -4.78889481 -110.94956713 -4.62405205 -113.4375 -4.5 C-118.36914431 -4.42292674 -118.36914431 -4.42292674 -123 -3 C-125.26765601 -2.76764056 -127.53361414 -2.61898297 -129.80859375 -2.4765625 C-132.07253703 -2.1936335 -132.07253703 -2.1936335 -133.44140625 -0.53515625 C-135.61737983 1.60809593 -137.5160902 1.71825612 -140.5 2.1875 C-141.4590625 2.34605469 -142.418125 2.50460937 -143.40625 2.66796875 C-146 3 -146 3 -149 3 C-153.9673731 3.4686201 -157.71157196 4.406997 -162 7 C-162.99 8.485 -162.99 8.485 -164 10 C-164.66 9.67 -165.32 9.34 -166 9 C-173.59875958 9 -180.70158273 11.94101998 -187 16 C-187 16.66 -187 17.32 -187 18 C-187.928125 18.103125 -188.85625 18.20625 -189.8125 18.3125 C-193.23138159 19.04990583 -193.71328243 19.61385993 -196 22 C-197.65614657 22.38218767 -199.32457024 22.71395102 -201 23 C-203.23408113 23.99083967 -203.23408113 23.99083967 -205 25 C-205 25.66 -205 26.32 -205 27 C-205.78375 26.95875 -206.5675 26.9175 -207.375 26.875 C-210.16116119 26.71271266 -210.16116119 26.71271266 -212 29 C-212.804375 29.268125 -213.60875 29.53625 -214.4375 29.8125 C-217.65395015 31.30305007 -218.38014531 32.91456249 -220 36 C-220.66 36.66 -221.32 37.32 -222 38 C-222.99 38 -223.98 38 -225 38 C-225.495 38.99 -225.495 38.99 -226 40 C-228 40.33333333 -230 40.66666667 -232 41 C-232.495 41.99 -232.495 41.99 -233 43 C-234.65287176 44.02264008 -236.32279848 45.01777149 -238 46 C-240.10259266 47.47288217 -242.18534494 48.97439282 -244.25 50.5 C-245.30703125 51.2734375 -246.3640625 52.046875 -247.453125 52.84375 C-250.22636764 54.81291615 -250.22636764 54.81291615 -251 58 C-251.5775 58.12375 -252.155 58.2475 -252.75 58.375 C-256.945443 59.54040083 -259.32842956 63.00508082 -261.6875 66.5 C-262.98090094 68.96362084 -264.00981492 71.40076415 -265 74 C-265.8353125 75.4540625 -265.8353125 75.4540625 -266.6875 76.9375 C-268.84621227 81.77043791 -267.78080834 86.87509171 -267.2265625 91.98828125 C-267 95 -267 95 -268 97 C-268.63825135 102.36131134 -267.20376208 106.71125779 -264 111 C-261.3852733 112.12815365 -261.3852733 112.12815365 -259 112 C-259 112.66 -259 113.32 -259 114 C-259.99 114 -260.98 114 -262 114 C-261.34 114.66 -260.68 115.32 -260 116 C-259.01 116 -258.02 116 -257 116 C-257 118.33333333 -257 120.66666667 -257 123 C-255.72125 123.20625 -254.4425 123.4125 -253.125 123.625 C-250.9140625 124.15625 -250.9140625 124.15625 -249 125 C-247.5 128.125 -247.5 128.125 -247 131 C-255.94364424 127.96554928 -262.83982957 120.30336057 -267 112 C-270.43913661 105.0201489 -271.18117156 98.85123971 -271.1875 91.1875 C-271.20586914 90.03411133 -271.20586914 90.03411133 -271.22460938 88.85742188 C-271.25580618 76.53468408 -266.41827555 66.31462348 -257.9375 57.375 C-250.12555913 50.01708647 -240.90588149 44.08427503 -231.8671875 38.3515625 C-229.91079213 37.02026213 -229.91079213 37.02026213 -228.1796875 35.1015625 C-225.47376193 32.49262351 -222.47041894 30.64328187 -219.25 28.75 C-218.2592749 28.16412109 -218.2592749 28.16412109 -217.24853516 27.56640625 C-210.00697598 23.34145126 -202.59515342 19.54574802 -195 16 C-194.22978516 15.6390625 -193.45957031 15.278125 -192.66601562 14.90625 C-172.6648696 5.65270774 -151.62985932 -0.83359267 -130 -5 C-128.4840625 -5.30164063 -128.4840625 -5.30164063 -126.9375 -5.609375 C-123.96447418 -6.15442973 -120.99551632 -6.59578575 -118 -7 C-117.36094727 -7.09023438 -116.72189453 -7.18046875 -116.06347656 -7.2734375 C-77.34895164 -12.55674749 -38.00411951 -7.83725506 0 0 Z " fill="#F3A44D" transform="translate(346,292)"/>
<path d="M0 0 C1.02090729 0.00007553 2.04181458 0.00015106 3.09365845 0.00022888 C4.75151871 0.00797081 4.75151871 0.00797081 6.44287109 0.01586914 C7.57203949 0.01728409 8.70120789 0.01869904 9.86459351 0.02015686 C13.48185848 0.02576796 17.09906223 0.03832237 20.71630859 0.05102539 C23.16422437 0.05603896 25.61214111 0.06060211 28.06005859 0.06469727 C34.07049625 0.07574099 40.08089805 0.09248996 46.09130859 0.11352539 C46.42130859 0.77352539 46.75130859 1.43352539 47.09130859 2.11352539 C45.87773682 2.10305176 44.66416504 2.09257812 43.41381836 2.08178711 C38.82709816 2.04505231 34.24039037 2.02243442 29.65356445 2.00366211 C27.68414103 1.99372443 25.71473187 1.98016963 23.74536133 1.96264648 C6.67519121 1.81477749 -9.37939432 2.64865 -25.90869141 7.30102539 C-27.58040405 7.76448364 -27.58040405 7.76448364 -29.28588867 8.23730469 C-52.65473242 14.89601434 -73.80095642 26.19232377 -93.15869141 40.80102539 C-106.38788804 50.76142958 -118.70372995 56.10860425 -135.68994141 53.72290039 C-138.15869141 53.23852539 -138.15869141 53.23852539 -141.90869141 52.11352539 C-142.23869141 51.45352539 -142.56869141 50.79352539 -142.90869141 50.11352539 C-138.34125884 49.98665226 -138.34125884 49.98665226 -136.21728516 50.60961914 C-132.89684363 51.33438557 -129.60188873 51.25782528 -126.22119141 51.23852539 C-125.5321875 51.24239258 -124.84318359 51.24625977 -124.13330078 51.25024414 C-120.73475762 51.54338453 -120.73475762 51.54338453 -117.90869141 50.11352539 C-116.29994141 49.95883789 -116.29994141 49.95883789 -114.65869141 49.80102539 C-110.48639272 49.03610396 -109.01504474 47.89289417 -105.90869141 45.11352539 C-103.34227826 43.44535684 -101.13524907 42.18728835 -98.22119141 41.23852539 C-95.66051766 40.28289944 -95.66051766 40.28289944 -94.59619141 37.48852539 C-94.36931641 36.70477539 -94.14244141 35.92102539 -93.90869141 35.11352539 C-92.58869141 35.11352539 -91.26869141 35.11352539 -89.90869141 35.11352539 C-89.24869141 34.45352539 -88.58869141 33.79352539 -87.90869141 33.11352539 C-82.37022987 30.11352539 -82.37022987 30.11352539 -79.90869141 30.11352539 C-79.41369141 28.62852539 -79.41369141 28.62852539 -78.90869141 27.11352539 C-78.24869141 27.11352539 -77.58869141 27.11352539 -76.90869141 27.11352539 C-76.57869141 26.45352539 -76.24869141 25.79352539 -75.90869141 25.11352539 C-73.34293684 23.73399297 -70.78266161 22.43488433 -68.15869141 21.17602539 C-62.63769792 18.52754267 -62.63769792 18.52754267 -57.31494141 15.51196289 C-54.36516394 13.79764417 -51.38838005 12.77053099 -48.15869141 11.67602539 C-44.0934915 10.27452345 -40.19518534 8.83981087 -36.34619141 6.92602539 C-31.62544613 4.71707289 -26.7682244 4.15091724 -21.63134766 3.50805664 C-18.9499743 3.2651344 -18.9499743 3.2651344 -16.90869141 2.11352539 C-14.34991248 1.80232255 -11.79017529 1.60387873 -9.22119141 1.39477539 C-5.88030114 0.9884509 -3.50495061 -0.00863288 0 0 Z " fill="#F2A44C" transform="translate(246.90869140625,374.886474609375)"/>
<path d="M0 0 C0.7381041 -0.00095673 1.47620819 -0.00191345 2.23667908 -0.00289917 C3.7906808 -0.00357718 5.34468542 -0.00174944 6.89868164 0.00244141 C9.27301398 0.00780272 11.64715782 0.00247965 14.02148438 -0.00390625 C15.53515667 -0.00324555 17.04882884 -0.00196456 18.5625 0 C19.62356712 -0.00303635 19.62356712 -0.00303635 20.70606995 -0.00613403 C24.05064913 0.00973712 26.9998772 0.23584154 30.21484375 1.1328125 C31.87349495 1.27579381 33.53593065 1.37822475 35.19921875 1.44921875 C36.60107422 1.51206055 36.60107422 1.51206055 38.03125 1.57617188 C38.99933594 1.61548828 39.96742188 1.65480469 40.96484375 1.6953125 C41.94839844 1.73849609 42.93195313 1.78167969 43.9453125 1.82617188 C46.3683565 1.93203302 48.79149915 2.03411421 51.21484375 2.1328125 C51.21484375 2.7928125 51.21484375 3.4528125 51.21484375 4.1328125 C52.46201172 4.20628906 52.46201172 4.20628906 53.734375 4.28125 C54.82105469 4.35601562 55.90773438 4.43078125 57.02734375 4.5078125 C58.10628906 4.57742188 59.18523437 4.64703125 60.296875 4.71875 C63.21484375 5.1328125 63.21484375 5.1328125 66.21484375 7.1328125 C64.71824219 6.95105469 64.71824219 6.95105469 63.19140625 6.765625 C43.84828396 4.47723372 24.57230785 2.94363495 5.08984375 2.9453125 C4.40307556 2.94440613 3.71630737 2.94349976 3.00872803 2.94256592 C-4.0216253 2.94362143 -10.82728223 3.14776517 -17.78515625 4.1328125 C-19.95103313 4.19490759 -22.11852931 4.21993326 -24.28515625 4.1953125 C-25.32671875 4.18628906 -26.36828125 4.17726563 -27.44140625 4.16796875 C-28.6015625 4.15056641 -28.6015625 4.15056641 -29.78515625 4.1328125 C-29.12515625 3.1428125 -28.46515625 2.1528125 -27.78515625 1.1328125 C-25.26492212 0.93596581 -22.98113759 0.89781236 -20.47265625 1.0078125 C-15.47254766 1.23813177 -15.47254766 1.23813177 -10.54052734 0.64160156 C-7.01944532 -0.00857874 -3.56647821 -0.01023511 0 0 Z " fill="#FFFCE3" transform="translate(257.78515625,280.8671875)"/>
<path d="M0 0 C1.6045556 0.14148989 3.20863767 0.28835686 4.8125 0.4375 C5.70582031 0.51871094 6.59914063 0.59992188 7.51953125 0.68359375 C10 1 10 1 13 2 C14.50501696 2.20032115 16.01524774 2.36299545 17.52734375 2.5 C18.40197266 2.5825 19.27660156 2.665 20.17773438 2.75 C21.08845703 2.8325 21.99917969 2.915 22.9375 3 C24.73853997 3.16384727 26.53933492 3.33041565 28.33984375 3.5 C29.13769287 3.5721875 29.93554199 3.644375 30.75756836 3.71875 C32.907819 3.98843849 34.90260616 4.46767059 37 5 C59.44200464 7.05401398 82.54757921 6.72474014 105 5 C101.50689021 8.49310979 97.76082878 8.12583589 92.99389648 8.12939453 C91.17697548 8.13412277 91.17697548 8.13412277 89.323349 8.13894653 C88.01910477 8.1369223 86.71486053 8.13489807 85.37109375 8.1328125 C84.01636233 8.13348639 82.66163103 8.13445712 81.30690002 8.13571167 C78.47159674 8.13718414 75.636325 8.13504822 72.80102539 8.13037109 C69.16711897 8.12466861 65.53328632 8.12795893 61.89938259 8.13394356 C59.10357609 8.13755667 56.30778709 8.13640722 53.51198006 8.13381577 C51.52055437 8.13282467 49.52912801 8.13586057 47.53770447 8.13894653 C45.7255117 8.13421829 45.7255117 8.13421829 43.87670898 8.12939453 C42.81177719 8.12859894 41.7468454 8.12780334 40.64964294 8.12698364 C38 8 38 8 35 7 C31.64720828 6.6924828 28.29380703 6.4910292 24.93359375 6.28125 C22 6 22 6 20 5 C18.31504 4.84446523 16.62667869 4.72478271 14.9375 4.625 C9.59511305 4.19507176 4.97299218 2.95235989 0 1 C0 0.67 0 0.34 0 0 Z " fill="#FEF6CC" transform="translate(595,475)"/>
<path d="M0 0 C9.6404243 -0.32435072 17.58054604 1.06300711 26.6484375 4.203125 C30.72935432 5.58602705 34.86702488 6.78340398 39 8 C38.505 6.515 38.505 6.515 38 5 C38.99 5.33 39.98 5.66 41 6 C40.67 6.66 40.34 7.32 40 8 C40.66 8 41.32 8 42 8 C42 8.66 42 9.32 42 10 C45.65456815 10.75241109 49.31733897 11.40049704 53 12 C53 12.66 53 13.32 53 14 C54.98 13.67 56.96 13.34 59 13 C59.495 13.99 59.495 13.99 60 15 C62.49532714 15.90951176 64.96169981 16.7315238 67.5 17.5 C70.03830019 18.2684762 72.50467286 19.09048824 75 20 C75.495 20.99 75.495 20.99 76 22 C71.27999026 21.44854158 67.18646501 20.5007607 62.75 18.8125 C46.64312837 12.88380044 30.13583148 8.01583918 13.5 3.8125 C12.51157104 3.56185791 12.51157104 3.56185791 11.50317383 3.30615234 C7.6883945 2.35892035 3.88524692 1.59357939 0 1 C0 0.67 0 0.34 0 0 Z " fill="#F3B151" transform="translate(316,381)"/>
<path d="M0 0 C33.38036075 -0.41959456 65.26001742 2.24832156 98 9 C98 9.33 98 9.66 98 10 C96.35425434 10.02688151 94.70838587 10.04634123 93.0625 10.0625 C91.68771484 10.07990234 91.68771484 10.07990234 90.28515625 10.09765625 C88 10 88 10 87 9 C85.00215071 9.03222338 83.00379947 9.06809043 81.0078125 9.16015625 C79 9 79 9 76 7 C73.32802965 6.57885802 73.32802965 6.57885802 70.4375 6.4375 C65.19236641 6.09618321 65.19236641 6.09618321 63 5 C59.36613567 4.68286275 55.73152308 4.48828964 52.08984375 4.28125 C49 4 49 4 48 3 C32.12447817 1.36241036 15.94682309 1.47004663 0 1 C0 0.67 0 0.34 0 0 Z " fill="#EDAD59" transform="translate(248,283)"/>
<path d="M0 0 C-1.875 5.75 -1.875 5.75 -3 8 C-3.99 8.33 -4.98 8.66 -6 9 C-6 8.34 -6 7.68 -6 7 C-6.99 7 -7.98 7 -9 7 C-9.226875 7.61875 -9.45375 8.2375 -9.6875 8.875 C-11.40446275 11.65484445 -12.996823 11.81269746 -16 13 C-17.71230248 14.61974559 -19.37163262 16.2958946 -21 18 C-28.99934917 25.84998373 -28.99934917 25.84998373 -35 26 C-29.51662097 20.3157646 -23.29822074 15.72082852 -17 11 C-16.32888184 10.4946875 -15.65776367 9.989375 -14.96630859 9.46875 C-12.91974994 7.93106799 -10.86734594 6.4015849 -8.8125 4.875 C-8.16490723 4.38950684 -7.51731445 3.90401367 -6.85009766 3.40380859 C-2.23161108 0 -2.23161108 0 0 0 Z " fill="#F4CE47" transform="translate(914,246)"/>
<path d="M0 0 C20.64126738 3.10778632 40.32765025 10.27282017 60 17 C60 17.33 60 17.66 60 18 C55.44283428 18.24869488 52.49441116 17.6110267 48.375 15.6875 C42.36686731 13.04302264 36.39120578 11.42454587 30 10 C28.90171875 9.68289063 28.90171875 9.68289063 27.78125 9.359375 C25.90556634 8.79085397 25.90556634 8.79085397 24 10 C24 9.34 24 8.68 24 8 C22.9378125 7.73445313 21.875625 7.46890625 20.78125 7.1953125 C15.74869792 5.93717448 10.71614583 4.67903646 5.68359375 3.42089844 C4.58724609 3.14681152 4.58724609 3.14681152 3.46875 2.8671875 C2.3240625 2.58101563 1.179375 2.29484375 0 2 C0 1.34 0 0.68 0 0 Z " fill="#F2AC44" transform="translate(346,293)"/>
<path d="M0 0 C0.99 0 1.98 0 3 0 C3 0.66 3 1.32 3 2 C3.68537842 2.11102051 4.37075684 2.22204102 5.0769043 2.33642578 C8.48406474 3.10988791 11.53119672 4.30398458 14.76953125 5.6171875 C15.40936447 5.87501007 16.04919769 6.13283264 16.7084198 6.39846802 C18.74479067 7.21989909 20.77871197 8.04719735 22.8125 8.875 C25.48503805 9.95731238 28.1584911 11.03735332 30.83203125 12.1171875 C31.4688382 12.37487411 32.10564514 12.63256073 32.76174927 12.89805603 C37.15035174 14.6699978 41.55851914 16.36592079 46 18 C47.66905395 18.66066719 49.3369416 19.32438252 51 20 C47.67465243 21.10844919 45.37817425 20.84454356 42 20 C42 19.34 42 18.68 42 18 C37.05 17.01 37.05 17.01 32 16 C32 15.34 32 14.68 32 14 C30.824375 13.9175 29.64875 13.835 28.4375 13.75 C24.71738728 13.28823776 22.18789959 12.12913009 18.98828125 10.12109375 C13.44562414 6.99586273 7.39975483 4.67654669 1 5 C0.67 3.35 0.34 1.7 0 0 Z " fill="#F3B343" transform="translate(450,327)"/>
<path d="M0 0 C0.66 0.33 1.32 0.66 2 1 C0.71034824 2.37562854 -0.62689293 3.70766393 -2 5 C-2.66 5 -3.32 5 -4 5 C-4.66 6.32 -5.32 7.64 -6 9 C-6.66 9 -7.32 9 -8 9 C-8.33 9.66 -8.66 10.32 -9 11 C-10.66060765 12.0100297 -12.32864739 13.00785171 -14 14 C-17.07986875 16.37971462 -20.12392853 18.79926676 -23.16015625 21.234375 C-26 23 -26 23 -28.17749023 22.61035156 C-28.77891846 22.40893555 -29.38034668 22.20751953 -30 22 C-26.94022677 19.72547434 -23.87671024 17.45604368 -20.8125 15.1875 C-19.94818359 14.54490234 -19.08386719 13.90230469 -18.19335938 13.24023438 C-17.35224609 12.61826172 -16.51113281 11.99628906 -15.64453125 11.35546875 C-14.87471924 10.78465576 -14.10490723 10.21384277 -13.31176758 9.62573242 C-11 8 -11 8 -8.34643555 6.4230957 C-5.82443618 4.89352185 -4.04212924 3.11254749 -2 1 C-1.34 0.67 -0.68 0.34 0 0 Z " fill="#F3A252" transform="translate(122,324)"/>
<path d="M0 0 C-1.57934639 0.98558449 -3.16365173 1.96322541 -4.75 2.9375 C-5.63171875 3.48277344 -6.5134375 4.02804688 -7.421875 4.58984375 C-9.71182283 5.84237582 -11.49509249 6.42030803 -14 7 C-14.886875 7.61875 -15.77375 8.2375 -16.6875 8.875 C-20.9304721 11.59690663 -26.09893445 14.54332671 -31.2734375 13.57421875 C-31.84320312 13.38472656 -32.41296875 13.19523438 -33 13 C-24.99637385 8.85620407 -16.98034737 4.83067025 -8.625 1.4375 C-7.98941162 1.17437012 -7.35382324 0.91124023 -6.69897461 0.64013672 C-2.24548331 -1.12274166 -2.24548331 -1.12274166 0 0 Z " fill="#F7CE31" transform="translate(989,206)"/>
<path d="M0 0 C3.93748458 -0.02898816 7.87494179 -0.04679464 11.8125 -0.0625 C12.93205078 -0.07087891 14.05160156 -0.07925781 15.20507812 -0.08789062 C16.81479492 -0.09272461 16.81479492 -0.09272461 18.45703125 -0.09765625 C19.9416687 -0.10551147 19.9416687 -0.10551147 21.45629883 -0.11352539 C24 0 24 0 27 1 C29.06362991 1.15029988 31.13123915 1.24844448 33.19921875 1.31640625 C35.01196289 1.37924805 35.01196289 1.37924805 36.86132812 1.44335938 C38.12396484 1.48267578 39.38660156 1.52199219 40.6875 1.5625 C42.59885742 1.62727539 42.59885742 1.62727539 44.54882812 1.69335938 C47.69910852 1.7995486 50.84946839 1.90159533 54 2 C54 2.33 54 2.66 54 3 C23.62962761 3.18943232 23.62962761 3.18943232 11.8125 2.625 C10.68557739 2.5787146 10.68557739 2.5787146 9.53588867 2.53149414 C5.83837288 2.32262684 3.23131499 1.76446514 0 0 Z " fill="#F3BE47" transform="translate(628,479)"/>
<path d="M0 0 C1.34244113 0.01006425 2.68488969 0.01918393 4.02734375 0.02734375 C7.26842489 0.05066088 10.50911102 0.08338448 13.75 0.125 C13.75 0.455 13.75 0.785 13.75 1.125 C12.70827637 1.154729 12.70827637 1.154729 11.64550781 1.18505859 C8.43002475 1.28164048 5.21507723 1.39076748 2 1.5 C0.36224609 1.54640625 0.36224609 1.54640625 -1.30859375 1.59375 C-13.51578175 1.28288945 -13.51578175 1.28288945 -24.25 5.125 C-26.58333333 5.45833333 -28.91666667 5.79166667 -31.25 6.125 C-31.58 6.455 -31.91 6.785 -32.25 7.125 C-34.92058851 7.26615161 -37.57432238 7.16747107 -40.25 7.125 C-28.91498659 -0.43167561 -13.05877289 -0.17061713 0 0 Z " fill="#F5D449" transform="translate(1031.25,197.875)"/>
<path d="M0 0 C1.47906892 -0.02689216 2.95827483 -0.04634621 4.4375 -0.0625 C5.26121094 -0.07410156 6.08492187 -0.08570313 6.93359375 -0.09765625 C9 0 9 0 10 1 C11.66204487 1.20775561 13.33029491 1.36718255 15 1.5 C19.88888889 1.88888889 19.88888889 1.88888889 21 3 C27.56026656 4.54928804 34.16358985 5.2755575 40.8828125 5.65625 C41.58148437 5.7696875 42.28015625 5.883125 43 6 C43.495 6.99 43.495 6.99 44 8 C28.79516173 7.96071101 14.6883901 4.73951461 0 1 C0 0.67 0 0.34 0 0 Z " fill="#F2BB44" transform="translate(582,471)"/>
<path d="M0 0 C0.66 0.33 1.32 0.66 2 1 C2.37400786 3.32716 2.70764733 5.66117862 3 8 C3.33 8.33 3.66 8.66 4 9 C4.09909302 11.33160055 4.12970504 13.66629942 4.125 16 C4.12757812 17.27875 4.13015625 18.5575 4.1328125 19.875 C4 23 4 23 3 24 C2.855625 25.11375 2.71125 26.2275 2.5625 27.375 C2 31 2 31 0 34 C-0.66 34 -1.32 34 -2 34 C-2 35.65 -2 37.3 -2 39 C-3.485 39.495 -3.485 39.495 -5 40 C-4.01317169 36.28041638 -2.96543635 32.91981233 -1.4375 29.375 C2.52654976 20.06810057 1.19190058 9.81189588 0 0 Z " fill="#FFFDDB" transform="translate(1225,368)"/>
<path d="M0 0 C0.66 0.33 1.32 0.66 2 1 C1 3 1 3 -0.8125 3.8125 C-3.23197245 4.93243136 -3.23197245 4.93243136 -5 7.625 C-5.66 8.40875 -6.32 9.1925 -7 10 C-8.32 10 -9.64 10 -11 10 C-11.2475 10.763125 -11.495 11.52625 -11.75 12.3125 C-13.12176758 15.26180029 -14.3918717 16.17431019 -17 18 C-17 18.66 -17 19.32 -17 20 C-19.64 20 -22.28 20 -25 20 C-20.99736725 15.75454609 -16.63250521 12.32632372 -11.9375 8.875 C-10.87692383 8.08802734 -10.87692383 8.08802734 -9.79492188 7.28515625 C-8.44767204 6.28578782 -7.09927343 5.28796543 -5.74951172 4.29199219 C-3.82555615 2.87117543 -1.9103926 1.43899702 0 0 Z " fill="#F6C936" transform="translate(877,272)"/>
<path d="M0 0 C0.5878125 0.144375 1.175625 0.28875 1.78125 0.4375 C13.06493628 2.77205578 24.53557058 2.18078309 36 2 C34.36490857 3.9790109 33.47110675 4.91265628 30.90625 5.38818359 C30.1121875 5.39156738 29.318125 5.39495117 28.5 5.3984375 C27.61731445 5.40439941 26.73462891 5.41036133 25.82519531 5.41650391 C24.89288086 5.40280762 23.96056641 5.38911133 23 5.375 C21.58219238 5.36412354 21.58219238 5.36412354 20.13574219 5.35302734 C13.58210667 5.22339747 7.0063946 4.89688943 1 2 C0.67 1.34 0.34 0.68 0 0 Z " fill="#F7DF58" transform="translate(1161,424)"/>
<path d="M0 0 C-1.56020867 0.65134925 -3.12328579 1.29582964 -4.6875 1.9375 C-5.55761719 2.29714844 -6.42773438 2.65679687 -7.32421875 3.02734375 C-16.74798592 6.45291751 -27.50303385 5.84908984 -37 3 C-37.33 2.34 -37.66 1.68 -38 1 C-33.43256743 0.87312687 -33.43256743 0.87312687 -31.30859375 1.49609375 C-27.98815222 2.22086017 -24.69319733 2.14429989 -21.3125 2.125 C-20.62349609 2.12886719 -19.93449219 2.13273437 -19.22460938 2.13671875 C-15.82606621 2.42985914 -15.82606621 2.42985914 -13 1 C-11.38660441 0.57785707 -9.75847585 0.2111646 -8.125 -0.125 C-7.24070313 -0.31320312 -6.35640625 -0.50140625 -5.4453125 -0.6953125 C-3 -1 -3 -1 0 0 Z " fill="#EFA455" transform="translate(142,424)"/>
<path d="M0 0 C3.8736876 -0.02519409 7.74734185 -0.04308675 11.62109375 -0.05493164 C13.56772545 -0.06228369 15.51433456 -0.07500578 17.4609375 -0.08789062 C38.31841352 -0.14109847 38.31841352 -0.14109847 48 2 C48 2.33 48 2.66 48 3 C44.54168414 3.02894547 41.08339928 3.04678 37.625 3.0625 C36.14773438 3.07506836 36.14773438 3.07506836 34.640625 3.08789062 C33.22910156 3.09272461 33.22910156 3.09272461 31.7890625 3.09765625 C30.48509521 3.10551147 30.48509521 3.10551147 29.15478516 3.11352539 C27 3 27 3 25 2 C23.11527141 1.84655791 21.22572126 1.75040429 19.3359375 1.68359375 C18.21445312 1.64169922 17.09296875 1.59980469 15.9375 1.55664062 C14.761875 1.51732422 13.58625 1.47800781 12.375 1.4375 C10.59996094 1.37272461 10.59996094 1.37272461 8.7890625 1.30664062 C5.85949672 1.20032574 2.92984412 1.09829358 0 1 C0 0.67 0 0.34 0 0 Z " fill="#FEEECD" transform="translate(251,376)"/>
<path d="M0 0 C9.158078 1.27684741 17.45444574 4.62842896 26 8 C26 8.33 26 8.66 26 9 C25.38511719 8.9278125 24.77023437 8.855625 24.13671875 8.78125 C23.32847656 8.6884375 22.52023437 8.595625 21.6875 8.5 C20.88699219 8.4071875 20.08648437 8.314375 19.26171875 8.21875 C16.88103445 7.95186537 16.88103445 7.95186537 14 8 C12.68 8 11.36 8 10 8 C10 7.34 10 6.68 10 6 C8.02 6.33 6.04 6.66 4 7 C4.66 6.01 5.32 5.02 6 4 C4.02 3.01 2.04 2.02 0 1 C0 0.67 0 0.34 0 0 Z " fill="#F5B141" transform="translate(406,311)"/>
<path d="M0 0 C4.98100471 2.68546592 9.23381643 5.60706272 13.5 9.3125 C14.06098389 9.79307861 14.62196777 10.27365723 15.19995117 10.76879883 C19.32664769 14.33523462 23.23043255 18.05510383 27 22 C23.06830895 22 21.83572772 20.60580385 19 18 C19 17.34 19 16.68 19 16 C18.34 16 17.68 16 17 16 C16.4225 15.401875 15.845 14.80375 15.25 14.1875 C12.71413784 11.72207845 10.2025306 10.45569573 7 9 C7 8.01 7 7.02 7 6 C6.01 6 5.02 6 4 6 C4 5.34 4 4.68 4 4 C2.68 3.67 1.36 3.34 0 3 C0 2.01 0 1.02 0 0 Z " fill="#F5D32B" transform="translate(1100,221)"/>
<path d="M0 0 C0.66 0.33 1.32 0.66 2 1 C-4.16240808 4.49758296 -10.41509728 7.76902915 -16.8125 10.8125 C-17.74461304 11.26508179 -17.74461304 11.26508179 -18.69555664 11.72680664 C-22.45331792 13.4887445 -25.87991766 14.514171 -30 15 C-30 14.34 -30 13.68 -30 13 C-28.68 13 -27.36 13 -26 13 C-26 12.34 -26 11.68 -26 11 C-24.35 11 -22.7 11 -21 11 C-21 10.34 -21 9.68 -21 9 C-19.68 9 -18.36 9 -17 9 C-17 8.34 -17 7.68 -17 7 C-15.35 7 -13.7 7 -12 7 C-12 6.01 -12 5.02 -12 4 C-10.88625 3.814375 -10.88625 3.814375 -9.75 3.625 C-7.17644284 3.04010064 -5.30994794 2.23197224 -3 1 C-2.01 0.67 -1.02 0.34 0 0 Z " fill="#F5C235" transform="translate(790,450)"/>
<path d="M0 0 C3.73764115 3.73764115 3.08963297 10.22449155 3.25 15.3125 C3.17129834 23.40752799 0.98683468 30.975577 -3 38 C-4.04449911 34.86650268 -3.93423645 34.01031744 -3 31 C-2.34 31 -1.68 31 -1 31 C-1.020625 29.88625 -1.04125 28.7725 -1.0625 27.625 C-1 24 -1 24 0 22 C0.08426094 20.3325394 0.10725143 18.66174813 0.09765625 16.9921875 C0.09443359 16.00605469 0.09121094 15.01992188 0.08789062 14.00390625 C0.07951172 12.97136719 0.07113281 11.93882812 0.0625 10.875 C0.05573242 9.31458984 0.05573242 9.31458984 0.04882812 7.72265625 C0.03701952 5.14838038 0.02055075 2.57421854 0 0 Z " fill="#F4DB43" transform="translate(1224,368)"/>
<path d="M0 0 C3.3 0.33 6.6 0.66 10 1 C10 1.66 10 2.32 10 3 C10.56847656 3.10957031 11.13695312 3.21914063 11.72265625 3.33203125 C16.84118532 4.38308146 21.25947892 5.8120672 26 8 C27.423125 8.5259375 27.423125 8.5259375 28.875 9.0625 C31 10 31 10 32 12 C20.9495295 9.51558509 10.51748212 5.11999404 0 1 C0 0.67 0 0.34 0 0 Z " fill="#F3BA52" transform="translate(486,440)"/>
<path d="M0 0 C8.70858649 2.31559027 17.31638155 4.90040299 25.921875 7.5703125 C26.89382813 7.869375 27.86578125 8.1684375 28.8671875 8.4765625 C30.16825439 8.8799585 30.16825439 8.8799585 31.49560547 9.29150391 C33.98240508 9.99502238 36.45999182 10.52819476 39 11 C39 11.33 39 11.66 39 12 C33.82631375 12.3167563 29.83263362 12.26604932 25.08203125 9.9296875 C18.43941119 6.96356447 11.18020432 5.05813537 4 4 C4 3.34 4 2.68 4 2 C2.68 1.67 1.36 1.34 0 1 C0 0.67 0 0.34 0 0 Z " fill="#F3B842" transform="translate(558,369)"/>
<path d="M0 0 C0.66 0 1.32 0 2 0 C1.67515625 0.91652344 1.67515625 0.91652344 1.34375 1.8515625 C-1.87257802 12.42375182 -1.28484263 23.05620016 -1 34 C-5.4738939 27.28915915 -4.71725103 18.8693171 -4 11 C-3.04331508 7.11059536 -1.77066984 3.58876834 0 0 Z " fill="#FEEDD2" transform="translate(77,362)"/>
<path d="M0 0 C9.57 0 19.14 0 29 0 C29 0.66 29 1.32 29 2 C30.24716797 2.07347656 30.24716797 2.07347656 31.51953125 2.1484375 C32.60621094 2.22320312 33.69289063 2.29796875 34.8125 2.375 C35.89144531 2.44460938 36.97039062 2.51421875 38.08203125 2.5859375 C41 3 41 3 44 5 C43.00226563 4.87882812 42.00453125 4.75765625 40.9765625 4.6328125 C27.34771864 3.02656744 13.6857553 1.98914011 0 1 C0 0.67 0 0.34 0 0 Z " fill="#FDEAC3" transform="translate(280,283)"/>
<path d="M0 0 C5.61978575 0.37465238 9.74708302 2.17224474 14.80078125 4.58984375 C20.6981908 7.18931243 26.8621811 9.05345824 33 11 C29.61725734 12.12758089 28.23221777 11.81750262 24.8125 11.0625 C23.91144531 10.86785156 23.01039063 10.67320312 22.08203125 10.47265625 C21.39496094 10.31667969 20.70789063 10.16070312 20 10 C20 9.34 20 8.68 20 8 C19.278125 7.87625 18.55625 7.7525 17.8125 7.625 C15 7 15 7 12.5625 5.9375 C9.57691417 4.8452125 7.15470377 4.85326959 4 5 C4 4.01 4 3.02 4 2 C2.68 1.67 1.36 1.34 0 1 C0 0.67 0 0.34 0 0 Z " fill="#F4B947" transform="translate(524,357)"/>
<path d="M0 0 C0.33 0.66 0.66 1.32 1 2 C-0.8125 4.5 -0.8125 4.5 -3 7 C-3.99 7 -4.98 7 -6 7 C-6.268125 7.598125 -6.53625 8.19625 -6.8125 8.8125 C-8.03585242 11.06604393 -8.97960332 12.42858036 -11 14 C-13.6875 14.6875 -13.6875 14.6875 -16 15 C-15.1875 13.0625 -15.1875 13.0625 -14 11 C-13.01 10.67 -12.02 10.34 -11 10 C-11 9.34 -11 8.68 -11 8 C-9.217871 6.55925285 -7.37339724 5.19489351 -5.5 3.875 C-4.4790625 3.15054687 -3.458125 2.42609375 -2.40625 1.6796875 C-1.6121875 1.12539063 -0.818125 0.57109375 0 0 Z " fill="#F5C533" transform="translate(823,314)"/>
<path d="M0 0 C2.475 0.495 2.475 0.495 5 1 C4.67 1.99 4.34 2.98 4 4 C4.66 4 5.32 4 6 4 C6 4.66 6 5.32 6 6 C6.99 5.67 7.98 5.34 9 5 C9.5534764 7.07553648 10 8.84365964 10 11 C10.66 11 11.32 11 12 11 C12.66 12.65 13.32 14.3 14 16 C14.99 16 15.98 16 17 16 C17 17.65 17 19.3 17 21 C13.56885393 17.65372327 10.4079209 14.21037746 7.375 10.5 C6.61960937 9.5821875 5.86421875 8.664375 5.0859375 7.71875 C3.17545695 5.22868546 1.5501477 2.72510042 0 0 Z " fill="#F6D226" transform="translate(1083,331)"/>
<path d="M0 0 C0.66 0.33 1.32 0.66 2 1 C-7.625 12.78989362 -7.625 12.78989362 -14.9375 14.8125 C-15.618125 14.874375 -16.29875 14.93625 -17 15 C-13.41157029 11.30504919 -9.66828129 7.95241783 -5.6875 4.6875 C-5.13771484 4.23310547 -4.58792969 3.77871094 -4.02148438 3.31054688 C-2.68287784 2.20474148 -1.34170769 1.10204061 0 0 Z " fill="#FEF5C9" transform="translate(890,379)"/>
<path d="M0 0 C-1.12073862 0.83905565 -2.24674547 1.67107831 -3.375 2.5 C-4.31472656 3.19609375 -4.31472656 3.19609375 -5.2734375 3.90625 C-7 5 -7 5 -9 5 C-9.33 5.99 -9.66 6.98 -10 8 C-13.44444444 11 -13.44444444 11 -16 11 C-16.33 10.01 -16.66 9.02 -17 8 C-15.68 7.67 -14.36 7.34 -13 7 C-13 6.01 -13 5.02 -13 4 C-12.01 4 -11.02 4 -10 4 C-10.33 3.01 -10.66 2.02 -11 1 C-10.2575 0.855625 -9.515 0.71125 -8.75 0.5625 C-6.07834232 0.05253619 -6.07834232 0.05253619 -3.8125 -0.625 C-2 -1 -2 -1 0 0 Z " fill="#F9CA19" transform="translate(966,322)"/>
<path d="M0 0 C-0.625 1.9375 -0.625 1.9375 -2 4 C-5.125 4.75 -5.125 4.75 -8 5 C-8 5.66 -8 6.32 -8 7 C-8.66 7 -9.32 7 -10 7 C-10.33 8.32 -10.66 9.64 -11 11 C-14.3 11.33 -17.6 11.66 -21 12 C-18.62035172 9.62035172 -17.09431401 8.32408665 -14.27734375 6.73828125 C-13.57416016 6.34189453 -12.87097656 5.94550781 -12.14648438 5.53710938 C-11.41751953 5.13298828 -10.68855469 4.72886719 -9.9375 4.3125 C-8.83825195 3.68891602 -8.83825195 3.68891602 -7.71679688 3.05273438 C-2.25796644 0 -2.25796644 0 0 0 Z " fill="#F5CE38" transform="translate(956,220)"/>
<path d="M0 0 C8.11138929 0.36620268 15.33035667 2.41540233 23 5 C21.1875 6.0625 21.1875 6.0625 19 7 C18.01 6.67 17.02 6.34 16 6 C16 5.34 16 4.68 16 4 C15.34 4 14.68 4 14 4 C14.33 4.99 14.66 5.98 15 7 C12.36 6.34 9.72 5.68 7 5 C7 4.34 7 3.68 7 3 C5.68 3 4.36 3 3 3 C3 2.34 3 1.68 3 1 C2.01 0.67 1.02 0.34 0 0 Z " fill="#F8CF25" transform="translate(1045,199)"/>
<path d="M0 0 C-4.62197306 2.21854707 -7.76824163 3.38281159 -13 3 C-13 3.66 -13 4.32 -13 5 C-20.92 5.495 -20.92 5.495 -29 6 C-24.25339913 3.62669956 -19.63837066 2.53608758 -14.5 1.3125 C-13.07494141 0.95575195 -13.07494141 0.95575195 -11.62109375 0.59179688 C-10.70457031 0.37201172 -9.78804687 0.15222656 -8.84375 -0.07421875 C-8.01037109 -0.27619873 -7.17699219 -0.47817871 -6.31835938 -0.6862793 C-3.88726263 -1.01525564 -2.31239589 -0.76004382 0 0 Z " fill="#FEF4C6" transform="translate(745,472)"/>
<path d="M0 0 C6.50274166 -0.34901721 12.42280891 0.95834589 18.75 2.375 C19.79027344 2.59671875 20.83054687 2.8184375 21.90234375 3.046875 C29.61438978 4.74292652 29.61438978 4.74292652 33 7 C28.71 6.67 24.42 6.34 20 6 C20 5.34 20 4.68 20 4 C18.39125 4.0928125 18.39125 4.0928125 16.75 4.1875 C10.95755888 4.21875418 5.53893263 2.55090114 0 1 C0 0.67 0 0.34 0 0 Z " fill="#FEF6D7" transform="translate(300,379)"/>
<path d="M0 0 C0.66 0.33 1.32 0.66 2 1 C0.33333333 2.66666667 -1.33333333 4.33333333 -3 6 C-3.721875 6.763125 -4.44375 7.52625 -5.1875 8.3125 C-7 10 -7 10 -9 10 C-9 10.66 -9 11.32 -9 12 C-9.5775 12.103125 -10.155 12.20625 -10.75 12.3125 C-13.32049158 13.09792798 -14.93657284 14.30504197 -17 16 C-17.66 15.67 -18.32 15.34 -19 15 C-12.77352578 9.8494239 -6.52576241 4.7681072 0 0 Z " fill="#F4C43A" transform="translate(797,336)"/>
<path d="M0 0 C1.98 0 3.96 0 6 0 C6 0.66 6 1.32 6 2 C7.65 2 9.3 2 11 2 C11 2.66 11 3.32 11 4 C11.886875 4.144375 12.77375 4.28875 13.6875 4.4375 C16.47117646 4.91019978 19.23483757 5.43070185 22 6 C22 6.66 22 7.32 22 8 C23.32 7.67 24.64 7.34 26 7 C26.33 8.32 26.66 9.64 27 11 C21.11883237 9.46578236 15.61724473 7.30663816 10 5 C8.12570621 4.24823687 6.25073099 3.49816993 4.375 2.75 C2.91666667 2.16666667 1.45833333 1.58333333 0 1 C0 0.67 0 0.34 0 0 Z " fill="#F2BA55" transform="translate(458,429)"/>
<path d="M0 0 C5.65706616 0.93369053 10.14479463 1.84411651 15 5 C18.30097306 6.41762719 21.64484555 7.71657199 25 9 C25 9.66 25 10.32 25 11 C19.66418034 9.28168519 14.38150426 7.44837952 9.125 5.5 C8.03445313 5.0978125 6.94390625 4.695625 5.8203125 4.28125 C3.2270223 3.10313478 1.79731003 2.16179948 0 0 Z " fill="#F3B651" transform="translate(414,411)"/>
<path d="M0 0 C6.13621223 0.35168015 10.50098644 1.13094945 16 4 C17.4104595 4.21289955 18.82881159 4.37774723 20.25 4.5 C22.10625 4.7475 22.10625 4.7475 24 5 C24.99 6.485 24.99 6.485 26 8 C19.78972353 7.43737174 14.37169827 5.99833221 8.5 3.9375 C7.67757812 3.65583984 6.85515625 3.37417969 6.0078125 3.08398438 C4.00282657 2.39622757 2.00106277 1.69908924 0 1 C0 0.67 0 0.34 0 0 Z " fill="#F5BA4F" transform="translate(524,454)"/>
<path d="M0 0 C0.33 1.32 0.66 2.64 1 4 C-0.09918816 4.98475214 -1.2045602 5.96260473 -2.3125 6.9375 C-3.23482422 7.75541016 -3.23482422 7.75541016 -4.17578125 8.58984375 C-6 10 -6 10 -9 11 C-9.33 9.68 -9.66 8.36 -10 7 C-6.7 4.69 -3.4 2.38 0 0 Z " fill="#F9C81D" transform="translate(922,350)"/>
<path d="M0 0 C14.60194175 11.80582524 14.60194175 11.80582524 17 19 C15 19 15 19 12.625 16.875 C10 14 10 14 7.9375 10.75 C6.29080208 7.87428973 6.29080208 7.87428973 3.75 7.125 C2.88375 7.063125 2.88375 7.063125 2 7 C1.34 4.69 0.68 2.38 0 0 Z " fill="#F5D528" transform="translate(1136,253)"/>
<path d="M0 0 C0 0.66 0 1.32 0 2 C2.475 2.495 2.475 2.495 5 3 C1.96143341 3.93979382 -0.20695472 3.99875808 -3.328125 3.44140625 C-4.12734375 3.30283203 -4.9265625 3.16425781 -5.75 3.02148438 C-6.575 2.87001953 -7.4 2.71855469 -8.25 2.5625 C-9.09046875 2.41490234 -9.9309375 2.26730469 -10.796875 2.11523438 C-12.86588544 1.7508064 -14.93312939 1.37637459 -17 1 C-17 0.67 -17 0.34 -17 0 C-15.10507254 -0.19644384 -13.20899097 -0.38177288 -11.3125 -0.5625 C-9.72888672 -0.71912109 -9.72888672 -0.71912109 -8.11328125 -0.87890625 C-5.18573914 -0.99277552 -2.82868856 -0.70848415 0 0 Z " fill="#F4AA4D" transform="translate(311,377)"/>
<path d="M0 0 C11.30031446 -0.84225946 22.00421383 1.67598898 33 4 C33 4.33 33 4.66 33 5 C31.35425434 5.02688151 29.70838587 5.04634123 28.0625 5.0625 C27.14597656 5.07410156 26.22945313 5.08570313 25.28515625 5.09765625 C23 5 23 5 22 4 C20.00215071 4.03222338 18.00379947 4.06809043 16.0078125 4.16015625 C14 4 14 4 11 2 C8.26127045 1.54227937 8.26127045 1.54227937 5.3125 1.375 C4.31863281 1.30023438 3.32476562 1.22546875 2.30078125 1.1484375 C1.54152344 1.09945313 0.78226562 1.05046875 0 1 C0 0.67 0 0.34 0 0 Z " fill="#F2AA43" transform="translate(313,288)"/>
<path d="M0 0 C2.97 0.33 5.94 0.66 9 1 C5.71301551 4.28698449 3.13409279 5.93295361 -1 8 C-1.99 7.67 -2.98 7.34 -4 7 C-3.34 7 -2.68 7 -2 7 C-1.855625 6.401875 -1.71125 5.80375 -1.5625 5.1875 C-1.1127561 3.43849596 -0.57107659 1.71322977 0 0 Z " fill="#F7C22C" transform="translate(796,442)"/>
<path d="M0 0 C1.875 0.3125 1.875 0.3125 4 1 C4.66 1.99 5.32 2.98 6 4 C6.66 3.67 7.32 3.34 8 3 C8.061875 3.66 8.12375 4.32 8.1875 5 C9.16958756 8.62616946 10.91582747 11.16292201 13.0390625 14.23046875 C13.35617187 14.81441406 13.67328125 15.39835937 14 16 C13.67 16.66 13.34 17.32 13 18 C11.01823243 15.37695436 9.04003469 12.75123789 7.0625 10.125 C6.49853516 9.37863281 5.93457031 8.63226563 5.35351562 7.86328125 C4.81533203 7.14785156 4.27714844 6.43242187 3.72265625 5.6953125 C3.22515869 5.03547363 2.72766113 4.37563477 2.21508789 3.69580078 C1 2 1 2 0 0 Z " fill="#F3D625" transform="translate(1116,373)"/>
<path d="M0 0 C1.32 0 2.64 0 4 0 C4 0.66 4 1.32 4 2 C5.32 2 6.64 2 8 2 C8 2.66 8 3.32 8 4 C9.32 3.67 10.64 3.34 12 3 C12.24492188 3.59296875 12.48984375 4.1859375 12.7421875 4.796875 C14.20952109 7.36698726 15.72292225 8.54529966 18.125 10.25 C18.84945313 10.77078125 19.57390625 11.2915625 20.3203125 11.828125 C20.87460938 12.21484375 21.42890625 12.6015625 22 13 C17.8908348 13 15.43577378 10.94571068 12.125 8.75 C11.51269531 8.35425781 10.90039062 7.95851562 10.26953125 7.55078125 C6.68567703 5.21014841 3.29988274 2.73526402 0 0 Z " fill="#FEF8BE" transform="translate(1085,211)"/>
<path d="M0 0 C3.84132844 -0.34921168 6.47659333 0.45889492 9.953125 2.06640625 C12.41722405 3.19029876 14.92033435 4.18845544 17.4375 5.1875 C18.30246094 5.53167969 19.16742188 5.87585938 20.05859375 6.23046875 C20.69925781 6.48441406 21.33992188 6.73835938 22 7 C15.03369189 9.3221027 6.32000999 4.00734775 0 1 C0 0.67 0 0.34 0 0 Z " fill="#F3B24E" transform="translate(392,403)"/>
<path d="M0 0 C6.41158007 0.33084666 11.30954347 0.82393124 17 4 C20.2366963 4.70758326 20.2366963 4.70758326 23 5 C23 5.66 23 6.32 23 7 C17.60607261 6.38334864 12.71604717 5.12077204 7.5625 3.4375 C6.83095703 3.20353516 6.09941406 2.96957031 5.34570312 2.72851562 C3.56219821 2.15732778 1.78086417 1.57936877 0 1 C0 0.67 0 0.34 0 0 Z " fill="#FEF3C8" transform="translate(563,370)"/>
<path d="M0 0 C2 2 2 2 2.375 5.0625 C3.0351014 9.22113885 4.34905809 12.18110243 6.2578125 15.88671875 C7.12764379 18.36344891 6.86866251 19.56444626 6 22 C2.13487719 14.62631553 0.17753026 8.34392221 0 0 Z " fill="#F0A355" transform="translate(75,386)"/>
<path d="M0 0 C3.58431982 2.70231442 6.41082159 5.47678716 9.1875 9 C9.86167969 9.845625 10.53585937 10.69125 11.23046875 11.5625 C12.75575337 13.66355431 13.93532965 15.64134568 15 18 C8.8341687 14.57453816 6.1273271 11.2546542 3 5 C2.01 4.34 1.02 3.68 0 3 C0 2.01 0 1.02 0 0 Z " fill="#F5D835" transform="translate(1153,272)"/>
<path d="M0 0 C0.66 0.33 1.32 0.66 2 1 C0.09755718 4.51951921 -1.49237283 6.99564162 -5 9 C-8.25 9.6875 -8.25 9.6875 -11 10 C-7.50640535 6.40365256 -3.88901869 3.16548033 0 0 Z " fill="#FEF5CA" transform="translate(851,410)"/>
<path d="M0 0 C0.66 0.33 1.32 0.66 2 1 C1.360625 1.28875 0.72125 1.5775 0.0625 1.875 C-2.15206079 2.82823451 -2.15206079 2.82823451 -3 5 C-5.32716 5.37400786 -7.66117862 5.70764733 -10 6 C-10.33 6.33 -10.66 6.66 -11 7 C-13.67058851 7.14115161 -16.32432238 7.04247107 -19 7 C-16.18627887 5.12418591 -14.93491205 4.64714295 -11.75 4.0625 C-8.64748972 3.43491228 -5.93686667 2.6382037 -3.0625 1.3125 C-2.051875 0.879375 -1.04125 0.44625 0 0 Z " fill="#F4C64B" transform="translate(723,380)"/>
<path d="M0 0 C-3.85157652 2.60913248 -7.70512138 3.99528572 -12.109375 5.3515625 C-13.98740056 5.84091457 -13.98740056 5.84091457 -15 7 C-16.66617115 7.04063832 -18.33388095 7.042721 -20 7 C-16.87065923 4.44236572 -13.71432957 2.82859007 -10 1.25 C-8.96875 0.80140625 -7.9375 0.3528125 -6.875 -0.109375 C-3.97128737 -1.00889467 -2.77603319 -1.0943977 0 0 Z " fill="#F3A95C" transform="translate(176,300)"/>
<path d="M0 0 C6.89835786 1.85913191 12.24385683 4.79515783 18 9 C17.01 9.495 17.01 9.495 16 10 C13.64018187 9.06421005 11.30368736 8.06652192 9 7 C9 6.34 9 5.68 9 5 C6.03 4.01 3.06 3.02 0 2 C0 1.34 0 0.68 0 0 Z " fill="#FEF8BD" transform="translate(1034,290)"/>
<path d="M0 0 C0.66 0.33 1.32 0.66 2 1 C-6.07744875 8.85193622 -6.07744875 8.85193622 -12 9 C-4.8 1.6 -4.8 1.6 0 0 Z " fill="#F6C82B" transform="translate(891,263)"/>
<path d="M0 0 C-6.40871041 4.37504865 -11.19198969 6.7481287 -19 7 C-15.7141754 4.24832423 -12.36372513 2.78066201 -8.375 1.25 C-7.22773437 0.80140625 -6.08046875 0.3528125 -4.8984375 -0.109375 C-2 -1 -2 -1 0 0 Z " fill="#F4D243" transform="translate(989,206)"/>
<path d="M0 0 C0.66 0.33 1.32 0.66 2 1 C-1.84147426 6.26267902 -4.51152543 8.83207458 -11 10 C-7.65996398 5.67760044 -4.67248931 2.82522609 0 0 Z " fill="#FEF6C6" transform="translate(963,323)"/>
<path d="M0 0 C0.66 0.33 1.32 0.66 2 1 C0.02 3.97 0.02 3.97 -2 7 C-2.99 6.67 -3.98 6.34 -5 6 C-5.226875 6.639375 -5.45375 7.27875 -5.6875 7.9375 C-7 10 -7 10 -9.625 10.75 C-10.40875 10.8325 -11.1925 10.915 -12 11 C-7.375 6.125 -7.375 6.125 -4 5 C-4 4.34 -4 3.68 -4 3 C-2 1.375 -2 1.375 0 0 Z " fill="#F6CD4B" transform="translate(836,303)"/>
<path d="M0 0 C1.32 0.33 2.64 0.66 4 1 C-7.52164009 8.48291572 -7.52164009 8.48291572 -13 11 C-13 10.01 -13 9.02 -13 8 C-12.195625 7.71125 -11.39125 7.4225 -10.5625 7.125 C-7.8673532 6.26737432 -7.8673532 6.26737432 -7 4 C-4.37418862 2.42451317 -3.12900213 2 0 2 C0 1.34 0 0.68 0 0 Z " fill="#F5CD2E" transform="translate(993,301)"/>
<path d="M0 0 C-2.52952288 3.15111212 -4.76756266 3.58798017 -8.6875 4.1875 C-9.68136719 4.34605469 -10.67523438 4.50460937 -11.69921875 4.66796875 C-12.45847656 4.77753906 -13.21773437 4.88710938 -14 5 C-14.33 4.34 -14.66 3.68 -15 3 C-14.01 3 -13.02 3 -12 3 C-12 2.34 -12 1.68 -12 1 C-10.37681021 0.63762737 -8.7513642 0.28534843 -7.125 -0.0625 C-6.22007812 -0.25972656 -5.31515625 -0.45695312 -4.3828125 -0.66015625 C-2 -1 -2 -1 0 0 Z " fill="#FA9E35" transform="translate(214,290)"/>
<path d="M0 0 C1.87939453 -0.2487793 1.87939453 -0.2487793 4.1328125 -0.07421875 C5.34130859 0.00795898 5.34130859 0.00795898 6.57421875 0.09179688 C7.41597656 0.16462891 8.25773438 0.23746094 9.125 0.3125 C10.39923828 0.4043457 10.39923828 0.4043457 11.69921875 0.49804688 C13.80053665 0.65151391 15.90045124 0.82397722 18 1 C18 1.33 18 1.66 18 2 C11.30324864 3.03026944 4.7685324 3.10152799 -2 3 C-1.34 2.01 -0.68 1.02 0 0 Z " fill="#FEF0CF" transform="translate(230,282)"/>
<path d="M0 0 C5.94 0.33 11.88 0.66 18 1 C18 1.66 18 2.32 18 3 C18.66 3.33 19.32 3.66 20 4 C13.25390382 3.33644956 6.65551466 2.28134207 0 1 C0 0.67 0 0.34 0 0 Z " fill="#FEEDC6" transform="translate(325,288)"/>
<path d="M0 0 C-1.14656875 3.43970626 -1.84518278 3.8782229 -4.8125 5.75 C-5.49957031 6.19859375 -6.18664062 6.6471875 -6.89453125 7.109375 C-9.39934831 8.16892656 -10.49281235 7.92399724 -13 7 C-11.21190303 5.82786955 -9.41940875 4.66244474 -7.625 3.5 C-6.62726562 2.8503125 -5.62953125 2.200625 -4.6015625 1.53125 C-2 0 -2 0 0 0 Z " fill="#FEF5C3" transform="translate(820,435)"/>
<path d="M0 0 C2 1 2 1 2 1 Z M-1 1 C-1 1.99 -1 2.98 -1 4 C-6.34883721 9 -6.34883721 9 -9 9 C-8.42655063 6.13275314 -8.1385485 5.1385485 -6 3 C-4.35008418 2.29289322 -2.68437744 1.62056011 -1 1 Z " fill="#FBC80C" transform="translate(905,254)"/>
<path d="M0 0 C-1.875 5.75 -1.875 5.75 -3 8 C-3.99 8.33 -4.98 8.66 -6 9 C-6 8.34 -6 7.68 -6 7 C-6.66 6.67 -7.32 6.34 -8 6 C-3.38461538 0 -3.38461538 0 0 0 Z " fill="#FACB2E" transform="translate(914,246)"/>
<path d="M0 0 C1.65 0 3.3 0 5 0 C5 0.66 5 1.32 5 2 C4.01 2 3.02 2 2 2 C2.66 2.66 3.32 3.32 4 4 C4.99 4 5.98 4 7 4 C6.67 4.99 6.34 5.98 6 7 C4.35 7 2.7 7 1 7 C0.67 4.69 0.34 2.38 0 0 Z " fill="#F89C3D" transform="translate(82,404)"/>
<path d="M0 0 C4.05819183 0.65503282 7.53971282 1.94559121 11.3125 3.5625 C12.38113281 4.01753906 13.44976563 4.47257812 14.55078125 4.94140625 C15.76314453 5.46541016 15.76314453 5.46541016 17 6 C17 6.33 17 6.66 17 7 C10.81839396 6.46246904 5.673142 4.45417612 0 2 C0 1.34 0 0.68 0 0 Z " fill="#F3B749" transform="translate(507,350)"/>
<path d="M0 0 C4.17576168 0.68416434 7.88080407 2.01365009 11.8125 3.5625 C13.55466797 4.24505859 13.55466797 4.24505859 15.33203125 4.94140625 C16.21246094 5.29074219 17.09289062 5.64007813 18 6 C18 6.33 18 6.66 18 7 C13.78121808 7.19622241 10.82989106 6.80230168 7 5 C7 4.34 7 3.68 7 3 C5.35 3 3.7 3 2 3 C2 2.34 2 1.68 2 1 C1.34 0.67 0.68 0.34 0 0 Z " fill="#F3B043" transform="translate(432,320)"/>
<path d="M0 0 C4.95 0.99 4.95 0.99 10 2 C10 3.32 10 4.64 10 6 C8.02 6.33 6.04 6.66 4 7 C4.66 6.01 5.32 5.02 6 4 C4.02 3.01 2.04 2.02 0 1 C0 0.67 0 0.34 0 0 Z " fill="#F6AD35" transform="translate(406,311)"/>
<path d="M0 0 C2.31 0.33 4.62 0.66 7 1 C4.19195732 3.96404505 1.81684226 6.44499019 -2 8 C-1.33333333 5.33333333 -0.66666667 2.66666667 0 0 Z " fill="#F6C921" transform="translate(906,360)"/>
<path d="M0 0 C0.66 0.33 1.32 0.66 2 1 C0.84826645 3.46800047 -0.04783565 5.04783565 -2 7 C-4.125 6.625 -4.125 6.625 -6 6 C-5.67 5.34 -5.34 4.68 -5 4 C-4.34 4 -3.68 4 -3 4 C-2.67 3.01 -2.34 2.02 -2 1 C-1.34 0.67 -0.68 0.34 0 0 Z M-8 6 C-7.34 6 -6.68 6 -6 6 C-6 6.99 -6 7.98 -6 9 C-6.66 9 -7.32 9 -8 9 C-8 8.01 -8 7.02 -8 6 Z " fill="#FB9A32" transform="translate(126,323)"/>
<path d="M0 0 C0 0.99 0 1.98 0 3 C-0.99 3 -1.98 3 -3 3 C-3 3.66 -3 4.32 -3 5 C-5.30368736 6.06652192 -7.64018187 7.06421005 -10 8 C-10.66 7.67 -11.32 7.34 -12 7 C-10.3790787 5.82767315 -8.75313167 4.6622923 -7.125 3.5 C-6.22007812 2.8503125 -5.31515625 2.200625 -4.3828125 1.53125 C-2 0 -2 0 0 0 Z " fill="#FEF6C3" transform="translate(984,310)"/>
<path d="M0 0 C0 0.99 0 1.98 0 3 C-0.99 3 -1.98 3 -3 3 C-3 3.66 -3 4.32 -3 5 C-5.30368736 6.06652192 -7.64018187 7.06421005 -10 8 C-10.66 7.67 -11.32 7.34 -12 7 C-10.3790787 5.82767315 -8.75313167 4.6622923 -7.125 3.5 C-6.22007812 2.8503125 -5.31515625 2.200625 -4.3828125 1.53125 C-2 0 -2 0 0 0 Z " fill="#F5CE40" transform="translate(935,232)"/>
<path d="M0 0 C0.66 0 1.32 0 2 0 C2.22174933 1.45635371 2.42698698 2.91522956 2.625 4.375 C2.74101563 5.18710937 2.85703125 5.99921875 2.9765625 6.8359375 C2.98429687 7.55007813 2.99203125 8.26421875 3 9 C2.34 9.66 1.68 10.32 1 11 C-1.78637633 6.8204355 -0.79562512 4.85331323 0 0 Z " fill="#FA9A35" transform="translate(76,378)"/>
<path d="M0 0 C0.66 0 1.32 0 2 0 C2.33 0.66 2.66 1.32 3 2 C4.32 2 5.64 2 7 2 C6.67 3.65 6.34 5.3 6 7 C6.66 7 7.32 7 8 7 C8.33 8.65 8.66 10.3 9 12 C5.45340661 8.71611723 2.60087007 5.06119467 0 1 C0 0.67 0 0.34 0 0 Z " fill="#F7D530" transform="translate(1107,361)"/>
<path d="M0 0 C0 0.99 0 1.98 0 3 C-2.40625 4.82421875 -2.40625 4.82421875 -5.5 6.6875 C-7.03140625 7.62142578 -7.03140625 7.62142578 -8.59375 8.57421875 C-9.3878125 9.04472656 -10.181875 9.51523437 -11 10 C-10.67 8.68 -10.34 7.36 -10 6 C-9.34 6 -8.68 6 -8 6 C-8 5.34 -8 4.68 -8 4 C-6.68 4 -5.36 4 -4 4 C-4 3.34 -4 2.68 -4 2 C-2.68 1.34 -1.36 0.68 0 0 Z " fill="#FFF2DA" transform="translate(116,327)"/>
<path d="M0 0 C0.66 0.33 1.32 0.66 2 1 C-0.26786278 4.64666307 -2.06404326 5.67897228 -6.1875 6.75 C-7.53908203 7.11351562 -7.53908203 7.11351562 -8.91796875 7.484375 C-9.60503906 7.65453125 -10.29210937 7.8246875 -11 8 C-7.71644638 4.32241995 -4.37221763 2.18610882 0 0 Z " fill="#F4A95C" transform="translate(135,316)"/>
<path d="M0 0 C3.59634744 3.49359465 6.83451967 7.11098131 10 11 C9.67 11.66 9.34 12.32 9 13 C6.95880212 11.38405168 4.95927063 9.7143618 3 8 C3 7.34 3 6.68 3 6 C2.34 6 1.68 6 1 6 C0.67 4.02 0.34 2.04 0 0 Z " fill="#F2D933" transform="translate(1178,303)"/>
<path d="M0 0 C1.32 0.33 2.64 0.66 4 1 C0.04 3.64 -3.92 6.28 -8 9 C-8.33 8.01 -8.66 7.02 -9 6 C-8.34 6 -7.68 6 -7 6 C-6.67 5.01 -6.34 4.02 -6 3 C-5.01 3.33 -4.02 3.66 -3 4 C-3 3.34 -3 2.68 -3 2 C-2.01 2 -1.02 2 0 2 C0 1.34 0 0.68 0 0 Z " fill="#FEFAD4" transform="translate(928,233)"/>
<path d="M0 0 C0.66 0.33 1.32 0.66 2 1 C-1.64751781 6.08441876 -3.85169289 7.79444959 -10 9 C-6.83047153 5.73991357 -3.60062011 2.77762123 0 0 Z " fill="#FEF7CA" transform="translate(930,348)"/>
<path d="M0 0 C1.32 0.33 2.64 0.66 4 1 C0.7 3.64 -2.6 6.28 -6 9 C-6.33 8.01 -6.66 7.02 -7 6 C-6.01 6 -5.02 6 -4 6 C-3.67 4.68 -3.34 3.36 -3 2 C-2.01 2 -1.02 2 0 2 C0 1.34 0 0.68 0 0 Z " fill="#FEF5C8" transform="translate(784,343)"/>
<path d="M0 0 C0.66 0.33 1.32 0.66 2 1 C-0.04796007 4.0719401 -1.68290303 5.45202141 -5 7 C-5.33 7.66 -5.66 8.32 -6 9 C-8.5625 9.625 -8.5625 9.625 -11 10 C-6.375 5.125 -6.375 5.125 -3 4 C-3 3.34 -3 2.68 -3 2 C-2.01 1.34 -1.02 0.68 0 0 Z " fill="#FEF9CA" transform="translate(943,338)"/>
<path d="M0 0 C2.31 0.66 4.62 1.32 7 2 C6.67 2.99 6.34 3.98 6 5 C6.66 5 7.32 5 8 5 C8 6.65 8 8.3 8 10 C5.33333333 6.66666667 2.66666667 3.33333333 0 0 Z " fill="#F7D124" transform="translate(1073,319)"/>
<path d="M0 0 C-2.52267991 1.68178661 -4.81091823 2.90106742 -7.5625 4.125 C-8.34753906 4.47820312 -9.13257813 4.83140625 -9.94140625 5.1953125 C-12 6 -12 6 -14 6 C-13 3 -13 3 -9.8125 1.3125 C-6.4652075 -0.01535157 -3.61508773 -0.26451861 0 0 Z " fill="#F3D02E" transform="translate(1011,295)"/>
<path d="M0 0 C2.31 0.33 4.62 0.66 7 1 C4.19195732 3.96404505 1.81684226 6.44499019 -2 8 C-2 7.01 -2 6.02 -2 5 C-1.01 5 -0.02 5 1 5 C0.67 3.35 0.34 1.7 0 0 Z " fill="#F8C429" transform="translate(866,392)"/>
<path d="M0 0 C0.33 0.66 0.66 1.32 1 2 C-1.23407889 5.35111834 -2.26215824 6.81553956 -6.25 7.8125 C-7.61125 7.9053125 -7.61125 7.9053125 -9 8 C-6.14723863 5.06799526 -3.34920216 2.35684596 0 0 Z " fill="#F6C842" transform="translate(823,314)"/>
<path d="M0 0 C-2.70045182 1.80030122 -5.06677881 2.93377066 -8.0625 4.125 C-9.37927734 4.65480469 -9.37927734 4.65480469 -10.72265625 5.1953125 C-13 6 -13 6 -15 6 C-15 5.34 -15 4.68 -15 4 C-13.68 4 -12.36 4 -11 4 C-11 3.34 -11 2.68 -11 2 C-7.17679443 0.57741188 -4.08718695 -0.24042276 0 0 Z " fill="#FFFACF" transform="translate(987,205)"/>
<path d="M0 0 C6.19887485 -0.37952295 10.4477112 0.1647887 16 3 C12.23331402 4.3805087 9.55210827 3.59568159 5.75 2.5625 C4.13351562 2.13130859 4.13351562 2.13130859 2.484375 1.69140625 C1.25460937 1.34916016 1.25460937 1.34916016 0 1 C0 0.67 0 0.34 0 0 Z " fill="#F3BA47" transform="translate(566,467)"/>
<path d="M0 0 C0.66 0 1.32 0 2 0 C0.63629701 2.99220268 -0.94908083 5.29026529 -3.125 7.75 C-3.93324219 8.67039062 -3.93324219 8.67039062 -4.7578125 9.609375 C-5.16773438 10.06828125 -5.57765625 10.5271875 -6 11 C-6.33 10.01 -6.66 9.02 -7 8 C-6.67 7.34 -6.34 6.68 -6 6 C-5.01 6 -4.02 6 -3 6 C-2.690625 5.38125 -2.38125 4.7625 -2.0625 4.125 C-1.375 2.75 -0.6875 1.375 0 0 Z " fill="#F3D728" transform="translate(1218,406)"/>
<path d="M0 0 C4.68520915 1.21815438 8.70543612 2.69559987 13 5 C9.29218328 6.23593891 8.32489747 5.5678132 4.8125 4.0625 C3.91144531 3.68222656 3.01039063 3.30195313 2.08203125 2.91015625 C1.39496094 2.60980469 0.70789063 2.30945313 0 2 C0 1.34 0 0.68 0 0 Z " fill="#FDEFC6" transform="translate(409,410)"/>
<path d="M0 0 C2 0 2 0 4.5 2.25 C6.56954228 4.5264965 7.85749293 6.19566446 9 9 C8.34 9.66 7.68 10.32 7 11 C5.83051998 9.35616456 4.6644855 7.70987731 3.5 6.0625 C2.8503125 5.14597656 2.200625 4.22945313 1.53125 3.28515625 C0 1 0 1 0 0 Z " fill="#F6D626" transform="translate(1133,395)"/>
<path d="M0 0 C3.28788824 3.11016455 5.83735988 6.01618925 8 10 C6.35 9.67 4.7 9.34 3 9 C2.01 6.03 1.02 3.06 0 0 Z " fill="#FEFACD" transform="translate(1082,331)"/>
<path d="M0 0 C1.98 0 3.96 0 6 0 C7.0625 1.8125 7.0625 1.8125 8 4 C7.67 4.99 7.34 5.98 7 7 C5.83040013 6.02433888 4.66438823 5.044375 3.5 4.0625 C2.8503125 3.51722656 2.200625 2.97195313 1.53125 2.41015625 C1.0259375 1.94480469 0.520625 1.47945313 0 1 C0 0.67 0 0.34 0 0 Z " fill="#F7D22D" transform="translate(1053,300)"/>
<path d="M0 0 C0 0.66 0 1.32 0 2 C-0.99 2 -1.98 2 -3 2 C-3.04125 2.598125 -3.0825 3.19625 -3.125 3.8125 C-4 6 -4 6 -6.9375 7.8125 C-7.948125 8.204375 -8.95875 8.59625 -10 9 C-10.66 8.67 -11.32 8.34 -12 8 C-11.52949219 7.67386719 -11.05898438 7.34773438 -10.57421875 7.01171875 C-9.64029297 6.35623047 -9.64029297 6.35623047 -8.6875 5.6875 C-8.07261719 5.25824219 -7.45773437 4.82898438 -6.82421875 4.38671875 C-4.95767339 3.04165253 -4.95767339 3.04165253 -3.39453125 1.33203125 C-2 0 -2 0 0 0 Z " fill="#F7CE4B" transform="translate(850,294)"/>
<path d="M0 0 C-1.93270582 1.93270582 -5.38641388 1.62663055 -8 2 C-8.33 2.33 -8.66 2.66 -9 3 C-11.67058851 3.14115161 -14.32432238 3.04247107 -17 3 C-13.76295994 0.84197329 -11.73567919 0.42630053 -7.9375 -0.1875 C-6.34228516 -0.45626953 -6.34228516 -0.45626953 -4.71484375 -0.73046875 C-2 -1 -2 -1 0 0 Z " fill="#F4CD2E" transform="translate(1008,202)"/>
<path d="M0 0 C0 0.66 0 1.32 0 2 C-0.66 2 -1.32 2 -2 2 C-2 2.66 -2 3.32 -2 4 C-5.13498292 5.85776765 -7.37471432 6.20140476 -11 6 C-8.24029211 2.78034079 -4.3526723 0 0 0 Z " fill="#FEF6C5" transform="translate(800,447)"/>
<path d="M0 0 C2.64 0.33 5.28 0.66 8 1 C8 1.66 8 2.32 8 3 C9.32 2.67 10.64 2.34 12 2 C12.33 3.32 12.66 4.64 13 6 C8.31479085 4.78184562 4.29456388 3.30440013 0 1 C0 0.67 0 0.34 0 0 Z " fill="#F3B344" transform="translate(472,434)"/>
<path d="M0 0 C-0.99 1.32 -1.98 2.64 -3 4 C-3.66 3.67 -4.32 3.34 -5 3 C-7.62113708 3 -9.50935112 3.31292445 -12 4 C-12 3.34 -12 2.68 -12 2 C-11.01 2 -10.02 2 -9 2 C-9 1.34 -9 0.68 -9 0 C-3.375 -1.125 -3.375 -1.125 0 0 Z " fill="#F79E39" transform="translate(185,298)"/>
<path d="M0 0 C-2.68092691 2.68092691 -4.39167363 2.38670257 -8.125 2.625 C-9.22070312 2.69976562 -10.31640625 2.77453125 -11.4453125 2.8515625 C-12.28835938 2.90054687 -13.13140625 2.94953125 -14 3 C-11.87033995 0.87033995 -10.95931796 0.52375338 -8.125 -0.1875 C-7.44695313 -0.36667969 -6.76890625 -0.54585938 -6.0703125 -0.73046875 C-3.77181444 -1.02970718 -2.19449036 -0.69377386 0 0 Z " fill="#FEF6BA" transform="translate(1028,291)"/>
<path d="M0 0 C0.33 1.32 0.66 2.64 1 4 C-2.3 3.01 -5.6 2.02 -9 1 C-9 0.67 -9 0.34 -9 0 C-5.62182575 -0.84454356 -3.32534757 -1.10844919 0 0 Z " fill="#F5B446" transform="translate(457,425)"/>
<path d="M0 0 C0.66 0.33 1.32 0.66 2 1 C0.75 3 0.75 3 -1 5 C-2.32 5 -3.64 5 -5 5 C-5 5.66 -5 6.32 -5 7 C-6.32 6.67 -7.64 6.34 -9 6 C-6.03 4.02 -3.06 2.04 0 0 Z " fill="#F6C444" transform="translate(761,362)"/>
<path d="M0 0 C4.07913787 -0.23994929 7.24092359 0.37676246 11 2 C11.33 2.99 11.66 3.98 12 5 C10.37276701 4.54965877 8.74826336 4.08944646 7.125 3.625 C5.76761719 3.24214844 5.76761719 3.24214844 4.3828125 2.8515625 C2 2 2 2 0 0 Z " fill="#FEF0C6" transform="translate(476,337)"/>
<path d="M0 0 C1.32 0.33 2.64 0.66 4 1 C-0.95 3.97 -0.95 3.97 -6 7 C-6 5.68 -6 4.36 -6 3 C-4.02 2.67 -2.04 2.34 0 2 C0 1.34 0 0.68 0 0 Z " fill="#F3CD2D" transform="translate(974,313)"/>
<path d="M0 0 C1.65 0 3.3 0 5 0 C1.37464179 3.17218843 -2.51150278 4.42902597 -7 6 C-7 5.34 -7 4.68 -7 4 C-6.34 4 -5.68 4 -5 4 C-5 3.34 -5 2.68 -5 2 C-3.35 2 -1.7 2 0 2 C0 1.34 0 0.68 0 0 Z " fill="#FEFCD4" transform="translate(967,211)"/>
<path d="M0 0 C0.66 0.33 1.32 0.66 2 1 C-1.17320782 4.53586014 -3.16743695 6.58578031 -8 7 C-5.4837822 4.39391727 -2.94865641 2.10618315 0 0 Z " fill="#FEEFD4" transform="translate(156,413)"/>
<path d="M0 0 C3.3 0 6.6 0 10 0 C9.67 1.32 9.34 2.64 9 4 C6.03 3.01 3.06 2.02 0 1 C0 0.67 0 0.34 0 0 Z " fill="#F4D125" transform="translate(1036,290)"/>
<path d="M0 0 C1.32 0.33 2.64 0.66 4 1 C-0.455 3.97 -0.455 3.97 -5 7 C-5 6.01 -5 5.02 -5 4 C-4.34 4 -3.68 4 -3 4 C-3 3.34 -3 2.68 -3 2 C-2.01 1.34 -1.02 0.68 0 0 Z " fill="#FFF7D1" transform="translate(864,279)"/>
<path d="M0 0 C-4.455 2.97 -4.455 2.97 -9 6 C-9 5.01 -9 4.02 -9 3 C-8.01 3 -7.02 3 -6 3 C-6 2.01 -6 1.02 -6 0 C-3 -1 -3 -1 0 0 Z " fill="#FEF9D3" transform="translate(897,258)"/>
<path d="M0 0 C5.26053037 -0.31563182 8.44573816 0.33409063 13 3 C9.57056481 4.18771723 7.62215325 3.80226223 4.25 2.5625 C3.45078125 2.27503906 2.6515625 1.98757812 1.828125 1.69140625 C1.22484375 1.46324219 0.6215625 1.23507813 0 1 C0 0.67 0 0.34 0 0 Z " fill="#FEF6B7" transform="translate(1059,201)"/>
<path d="M0 0 C-0.33 0.99 -0.66 1.98 -1 3 C-4.80269732 4.6900877 -7.05272168 5.19873962 -11 4 C-9.5437455 3.32880451 -8.08492133 2.66318193 -6.625 2 C-5.81289063 1.62875 -5.00078125 1.2575 -4.1640625 0.875 C-2 0 -2 0 0 0 Z " fill="#FEF5C5" transform="translate(783,456)"/>
<path d="M0 0 C1.875 0.125 1.875 0.125 4 1 C5.25 4.0625 5.25 4.0625 6 7 C3.5625 6.3125 3.5625 6.3125 1 5 C0.1875 2.375 0.1875 2.375 0 0 Z " fill="#F89E45" transform="translate(93,416)"/>
<path d="M0 0 C0.99 0.33 1.98 0.66 3 1 C1.35 2.65 -0.3 4.3 -2 6 C-2.33 4.68 -2.66 3.36 -3 2 C-2.01 1.34 -1.02 0.68 0 0 Z " fill="#F5C627" transform="translate(848,409)"/>
<path d="M0 0 C1.875 0.3125 1.875 0.3125 4 1 C4.66 1.99 5.32 2.98 6 4 C6.66 3.67 7.32 3.34 8 3 C8 4.32 8 5.64 8 7 C6.25 6.875 6.25 6.875 4 6 C1.75 2.9375 1.75 2.9375 0 0 Z " fill="#F6D21A" transform="translate(1116,373)"/>
<path d="M0 0 C0.99 0.66 1.98 1.32 3 2 C0.69 3.65 -1.62 5.3 -4 7 C-3.67 5.35 -3.34 3.7 -3 2 C-2.01 2 -1.02 2 0 2 C0 1.34 0 0.68 0 0 Z " fill="#F6C830" transform="translate(895,372)"/>
<path d="M0 0 C2.5 2.3125 2.5 2.3125 5 5 C5 5.99 5 6.98 5 8 C3.0625 7.375 3.0625 7.375 1 6 C0.25 2.875 0.25 2.875 0 0 Z " fill="#FEF5B6" transform="translate(1097,349)"/>
<path d="M0 0 C1.32 0.33 2.64 0.66 4 1 C-0.455 3.97 -0.455 3.97 -5 7 C-5 6.01 -5 5.02 -5 4 C-4.01 4 -3.02 4 -2 4 C-2 3.34 -2 2.68 -2 2 C-1.34 2 -0.68 2 0 2 C0 1.34 0 0.68 0 0 Z " fill="#F7C52D" transform="translate(879,385)"/>
<path d="M0 0 C0.99 0 1.98 0 3 0 C3.33 0.99 3.66 1.98 4 3 C1.69 3.66 -0.62 4.32 -3 5 C-1.6875 2.5 -1.6875 2.5 0 0 Z " fill="#FCC510" transform="translate(875,275)"/>
<path d="M0 0 C1.98 0 3.96 0 6 0 C2.79663178 2.83374881 0.21912747 3.5205537 -4 4 C-4 3.34 -4 2.68 -4 2 C-2.68 2 -1.36 2 0 2 C0 1.34 0 0.68 0 0 Z " fill="#F2C545" transform="translate(764,461)"/>
<path d="M0 0 C-1.12073862 0.83905565 -2.24674547 1.67107831 -3.375 2.5 C-4.00148438 2.9640625 -4.62796875 3.428125 -5.2734375 3.90625 C-7 5 -7 5 -9 5 C-8 2 -8 2 -5.625 0.25 C-3 -1 -3 -1 0 0 Z " fill="#F4D82C" transform="translate(1211,418)"/>
<path d="M0 0 C0.33 1.32 0.66 2.64 1 4 C0.34 4 -0.32 4 -1 4 C-1 5.65 -1 7.3 -1 9 C-1.99 9.33 -2.98 9.66 -4 10 C-2.99806563 6.20696275 -2.18975773 3.28463659 0 0 Z " fill="#FEFABF" transform="translate(1224,398)"/>
<path d="M0 0 C3.39417765 3.12621626 5.6062718 5.56541027 7 10 C5.82174642 9.09827532 4.65768423 8.17798498 3.5 7.25 C2.8503125 6.73953125 2.200625 6.2290625 1.53125 5.703125 C0 4 0 4 0 0 Z " fill="#FEF8C3" transform="translate(1107,362)"/>
<path d="M0 0 C0.66 0.33 1.32 0.66 2 1 C-0.52788007 3.79872437 -2.20411134 5.45773019 -6 6 C-5 3 -5 3 -2.5625 1.25 C-1.716875 0.8375 -0.87125 0.425 0 0 Z " fill="#F2AA67" transform="translate(122,324)"/>
<path d="M0 0 C0.66 0.33 1.32 0.66 2 1 C0.87926138 1.83905565 -0.24674547 2.67107831 -1.375 3.5 C-2.00148438 3.9640625 -2.62796875 4.428125 -3.2734375 4.90625 C-5 6 -5 6 -7 6 C-7 5.01 -7 4.02 -7 3 C-5.68 3 -4.36 3 -3 3 C-3 2.34 -3 1.68 -3 1 C-2.01 0.67 -1.02 0.34 0 0 Z " fill="#F5CD3A" transform="translate(964,321)"/>
<path d="M0 0 C1.2065625 0.0309375 1.2065625 0.0309375 2.4375 0.0625 C0.7875 1.7125 -0.8625 3.3625 -2.5625 5.0625 C-3.125 3.125 -3.125 3.125 -3.5625 1.0625 C-2.5625 0.0625 -2.5625 0.0625 0 0 Z " fill="#FEFAD0" transform="translate(879.5625,267.9375)"/>
<path d="M0 0 C0.66 0.33 1.32 0.66 2 1 C0.875 2.9375 0.875 2.9375 -1 5 C-4.1875 5.75 -4.1875 5.75 -7 6 C-4.74259377 3.66475218 -2.7194239 1.81294927 0 0 Z " fill="#F6CC40" transform="translate(921,240)"/>
<path d="M0 0 C2.5 2.3125 2.5 2.3125 5 5 C5 5.99 5 6.98 5 8 C3.0625 7.375 3.0625 7.375 1 6 C0.25 2.875 0.25 2.875 0 0 Z " fill="#FEF5B4" transform="translate(1120,379)"/>
<path d="M0 0 C0.33 0 0.66 0 1 0 C1.3125 2.3125 1.3125 2.3125 1 5 C-1.5 6.8125 -1.5 6.8125 -4 8 C-2.87548273 5.0280615 -1.77706209 2.66559313 0 0 Z " fill="#F2A355" transform="translate(84,354)"/>
<path d="M0 0 C3.3 0 6.6 0 10 0 C10 0.99 10 1.98 10 3 C3.375 2.25 3.375 2.25 0 0 Z " fill="#FEEEC8" transform="translate(376,300)"/>
</svg>
